<svg width="1200" height="570" viewBox="0 0 1200 570" fill="none" xmlns="http://www.w3.org/2000/svg">
<path d="M99.7469 517.582C-51.3309 332.652 -28.6738 239.804 153.335 97.0603C156.234 94.7869 159.481 92.7152 162.746 91.0627C504.48 -81.9166 741.002 12.9567 1153.49 196.805C1167.89 203.222 1179.55 215.35 1184.7 230.731C1220.73 338.39 1195.57 386.824 1083.01 435.187C1076.37 438.04 1069.21 439.483 1062.03 439.576L727.503 443.88C720.13 443.975 712.724 445.559 705.888 448.433C411.605 572.18 269.79 603.698 118.789 532.641C111.485 529.204 104.937 523.935 99.7469 517.582Z" fill="#030017"/>
</svg>
