<svg width="32" height="32" viewBox="0 0 32 32" fill="none" xmlns="http://www.w3.org/2000/svg">
<circle cx="16" cy="16" r="16" fill="white"/>
<path fill-rule="evenodd" clip-rule="evenodd" d="M10.5317 28.2059V29.7372C5.09862 27.5654 1.26025 22.2535 1.26025 16.0451C1.26025 7.90453 7.85949 1.3053 16.0001 1.3053C24.1406 1.3053 30.7399 7.90453 30.7399 16.0451C30.7399 22.2535 26.9015 27.5654 21.4684 29.7372V28.2059H10.5317ZM19.0381 15.2073L21.4684 28.2059H10.5317L12.9621 15.2073H12.9622V13.1267H12.4178L15.9696 10.5317L19.5214 13.1267H19.0381V15.2073H19.0381ZM11.7508 24.3718L11.7444 24.4066L16.0001 25.6511L20.2558 24.4066L20.2494 24.3718H11.7508ZM16.0001 26.0769L20.6755 27.4578H11.3246L16.0001 26.0769ZM11.261 27.0369L15.2757 25.8629L11.6723 24.7986L11.261 27.0369ZM20.7392 27.0369L16.7244 25.8629L20.3278 24.7986L20.7392 27.0369ZM12.3521 21.2858L12.3444 21.3277L16.0001 22.3967L19.6558 21.3277L19.6481 21.2858H12.3521ZM15.3744 22.5797L12.2822 21.6663L11.9292 23.5872L15.3744 22.5797ZM11.9843 23.9506L16.0001 22.7645L20.0159 23.9506H11.9843ZM19.718 21.6663L16.6257 22.5797L20.071 23.5872L19.718 21.6663ZM12.8452 18.5739L12.8405 18.5994L16.0001 19.5233L19.1596 18.5994L19.1549 18.5739H12.8452ZM19.4712 20.8645H12.529L16.0001 19.8393L19.4712 20.8645ZM12.4816 20.5522L15.4624 19.6805L12.787 18.8903L12.4816 20.5522ZM19.5185 20.5522L16.5377 19.6805L19.2131 18.8903L19.5185 20.5522ZM13.3988 16.2359L13.391 16.2786L16.0001 17.0416L18.6091 16.2786L18.6013 16.2359H13.3988ZM18.866 18.1526H13.1342L16.0001 17.3061L18.866 18.1526ZM13.0947 17.8912L15.55 17.1732L13.3462 16.5223L13.0947 17.8912ZM18.9055 17.8912L16.4501 17.1732L18.6539 16.5223L18.9055 17.8912Z" fill="#000218"/>
</svg>
