<svg width="711" height="711" viewBox="0 0 711 711" fill="none" xmlns="http://www.w3.org/2000/svg">
<g clip-path="url(#clip0_198_144)">
<path d="M711 355.5C711 551.837 551.837 711 355.5 711C159.163 711 0 551.837 0 355.5C0 159.163 159.163 0 355.5 0C551.837 0 711 159.163 711 355.5Z" fill="url(#paint0_linear_198_144)"/>
<path d="M780.5 409.698C780.5 686.35 528.813 1025.87 235.858 1025.87C-57.0979 1025.87 -347 820.653 -347 544C16.2702 237.983 132.563 454.2 425.518 454.2C718.474 454.2 780.5 133.045 780.5 409.698Z" fill="url(#paint1_linear_198_144)"/>
<path d="M355.305 154L446.58 217.938L355.102 240.937L263.625 217.938L355.305 154Z" fill="#001344"/>
<path d="M496.723 606.075L355.305 632.736V728.367L497.882 693.345L496.723 606.075Z" fill="#1D6FCF"/>
<path d="M496.723 606.075L355.305 632.736V728.367L497.882 693.345L496.723 606.075Z" fill="#1D6FCF"/>
<path d="M215 604.336L355.259 633.315L355.305 728.367L215 693.345V604.336Z" fill="#000218"/>
<path d="M215 604.336L355.259 633.315L355.305 728.367L215 693.345V604.336Z" fill="#000218"/>
<path d="M355.305 289.622L434.128 271.076L496.723 606.075L355.305 637.372V289.622Z" fill="#59D1F7"/>
<path d="M355.305 289.622L277.641 271.655L215.046 604.336L355.305 637.372V289.622Z" fill="#001344"/>
<path d="M355.305 240.358L434.128 221.078V271.655L355.305 289.622V240.358Z" fill="#1D6FCF"/>
<path d="M355.305 240.358L277.641 221.495V271.655L355.305 289.622V240.358Z" fill="#000218"/>
<path d="M355.305 154L446.299 217.754L355.305 240.358L355.305 154Z" fill="#59D1F6"/>
</g>
<defs>
<linearGradient id="paint0_linear_198_144" x1="541.079" y1="50.8914" x2="51" y2="636" gradientUnits="userSpaceOnUse">
<stop stop-color="#00A8E8"/>
<stop offset="1" stop-color="#003459"/>
</linearGradient>
<linearGradient id="paint1_linear_198_144" x1="249" y1="297" x2="103" y2="533.5" gradientUnits="userSpaceOnUse">
<stop stop-color="#7AFB8F"/>
<stop offset="1" stop-color="#34753E"/>
</linearGradient>
<clipPath id="clip0_198_144">
<rect width="711" height="711" rx="355.5" fill="white"/>
</clipPath>
</defs>
</svg>
