<svg width="32" height="32" viewBox="0 0 32 32" fill="none" xmlns="http://www.w3.org/2000/svg">
<circle cx="16" cy="16" r="16" fill="white"/>
<path fill-rule="evenodd" clip-rule="evenodd" d="M21.4684 29.7372C26.9015 27.5654 30.7399 22.2535 30.7399 16.0451C30.7399 7.90453 24.1406 1.3053 16.0001 1.3053C7.85949 1.3053 1.26025 7.90453 1.26025 16.0451C1.26025 22.2535 5.09862 27.5654 10.5317 29.7372V28.2059H10.5315L12.9619 15.2074H12.9621H19.0378H19.0381L21.4684 28.2059V29.7372ZM11.7505 24.3718L11.7441 24.4066L16 25.6511L20.2558 24.4066L20.2494 24.3718H11.7505ZM16 26.0768L20.6755 27.4578H11.3244L16 26.0768ZM11.2608 27.037L15.2757 25.8629L11.6721 24.7985L11.2608 27.037ZM20.7392 27.037L16.7242 25.8629L20.3278 24.7985L20.7392 27.037ZM12.3519 21.2859L12.3442 21.3277L16 22.3967L19.6557 21.3277L19.6481 21.2859H12.3519ZM20.0159 23.9505H11.9841L16 22.7644L20.0159 23.9505ZM11.9289 23.5872L15.3745 22.5796L12.282 21.6662L11.9289 23.5872ZM20.071 23.5872L16.6255 22.5796L19.718 21.6662L20.071 23.5872ZM12.845 18.574L12.8403 18.5994L16 19.5234L19.1596 18.5994L19.1549 18.574H12.845ZM19.4712 20.8646H12.5287L16 19.8393L19.4712 20.8646ZM12.4814 20.5523L15.4624 19.6805L12.7868 18.8903L12.4814 20.5523ZM19.5185 20.5523L16.5375 19.6805L19.2131 18.8903L19.5185 20.5523ZM13.3986 16.236L13.3908 16.2786L16 17.0416L18.6091 16.2786L18.6013 16.236H13.3986ZM18.866 18.1527H13.134L16 17.3062L18.866 18.1527ZM13.0944 17.8913L15.5498 17.1732L13.346 16.5223L13.0944 17.8913ZM18.9055 17.8913L16.4501 17.1732L18.6539 16.5223L18.9055 17.8913ZM12.9622 13.1267H12.4179L15.9697 10.5317L19.5215 13.1267H19.0381V15.2074H12.9622V13.1267Z" fill="#000218"/>
</svg>
