<svg width="1200" height="519" viewBox="0 0 1200 519" fill="none" xmlns="http://www.w3.org/2000/svg">
<path d="M101.605 58.4927C-72.5064 197.771 14.9262 374.153 86.2139 451.819C90.0069 455.952 94.4056 459.346 99.2052 461.983C193.687 513.894 277.841 516.513 433.526 503.58C445.691 502.57 457.279 497.321 466.842 489.123C538.512 427.684 575.265 424.132 606.613 480.47C619.765 504.106 642.43 520.77 667.869 518.85L1016.37 492.544C1147.81 466.106 1186.23 411.501 1199.73 266.448C1200.2 261.303 1200.05 255.951 1199.3 250.845C1173.02 73.2212 1118.85 28.321 991.979 1.16273C988.116 0.335847 984.131 -0.0449256 980.194 0.00420867L572.936 5.08736C559.241 5.25829 546.056 10.674 535.4 19.9831C473.912 73.6999 437.217 88.7339 398.89 44.7659C387.688 31.9148 373.7 21.5945 357.471 19.6575C278.233 10.2003 220.104 17.9305 119.013 49.2991C112.811 51.2235 106.792 54.3428 101.605 58.4927Z" fill="#030017"/>
</svg>
